# xmcd
#
# Track frame offsets:
#	150
#	13091
#	25206
#	42843
#	57597
#	68744
#	79914
#	95117
#	107489
#	122233
#	133495
#	144593
#	163317
#	179803
#	195130
#	208813
#	225084
#	242384
#	257148
#	267687
#
# Disc length: 3713 seconds
#
# Revision: 0
# Processed by: cddbd v1.5.2PL0 Copyright (c) Steve Scherf et al.
# Submitted via: audiograbber 1.83.01
#
DISCID=2a0e7f14
DTITLE=Various Artist - Country Christmas - CD1
DYEAR=1900
DGENRE=
TTITLE0=Honky Tonk Christmas
TTITLE1=Santa Claus Is Back In Town
TTITLE2=Santa Claus Is Comin' (In A Boogie Woogie Choo Choo Train)
TTITLE3=Christmas Time's A Comin'
TTITLE4=Santa Looked A Lot Like Daddy
TTITLE5=Rudolph The Red Nosed Reindeer
TTITLE6=Christmas In Your Arms
TTITLE7=The Coolest Pair
TTITLE8=Old Hippie Christmas
TTITLE9=Christmas Time
TTITLE10=Mrs. Santa Claus
TTITLE11=Have Yourself A Merry Christmas
TTITLE12=Christmas At Our House
TTITLE13=White Christmas Makes Me Blue
TTITLE14=The Sweetest Gift
TTITLE15=When December Comes Around
TTITLE16=Winter Wonderland
TTITLE17=Leroy The Redneck Reindeer
TTITLE18=Rockin' Around The Christmas Tree
TTITLE19=Jingle Bell Rock
EXTD=
EXTT0=
EXTT1=
EXTT2=
EXTT3=
EXTT4=
EXTT5=
EXTT6=
EXTT7=
EXTT8=
EXTT9=
EXTT10=
EXTT11=
EXTT12=
EXTT13=
EXTT14=
EXTT15=
EXTT16=
EXTT17=
EXTT18=
EXTT19=
PLAYORDER=
